<svg xmlns="http://www.w3.org/2000/svg" width="54" height="54" viewBox="0 0 54 54">
  <g id="그룹_7947" data-name="그룹 7947" transform="translate(17818 20081)">
    <rect id="사각형_2662" data-name="사각형 2662" width="54" height="54" transform="translate(-17818 -20081)" fill="none"/>
    <g id="그룹_5035" data-name="그룹 5035" transform="translate(2605 -18.5)">
      <path id="패스_461" data-name="패스 461" d="M6.018,16.214l5.963-5.8,5.708,5.553,13.2-13.085" transform="translate(-20412 -20050.443)" fill="none" stroke="#1e76af" stroke-linejoin="round" stroke-width="2"/>
      <path id="패스_462" data-name="패스 462" d="M30.992,6.613l-.017-3.97L27,2.66Z" transform="translate(-20410.219 -20052.051)" fill="#1e76af"/>
      <line id="선_266" data-name="선 266" y1="11.509" transform="translate(-20405.982 -20030.51)" fill="none" stroke="#000" stroke-linejoin="round" stroke-width="1"/>
      <line id="선_267" data-name="선 267" y1="14.509" transform="translate(-20400.568 -20033.51)" fill="none" stroke="#000" stroke-linejoin="round" stroke-width="1"/>
      <line id="선_268" data-name="선 268" y1="11.509" transform="translate(-20395.154 -20030.51)" fill="none" stroke="#000" stroke-linejoin="round" stroke-width="1"/>
      <line id="선_269" data-name="선 269" y1="14.509" transform="translate(-20389.74 -20033.51)" fill="none" stroke="#000" stroke-linejoin="round" stroke-width="1"/>
      <line id="선_270" data-name="선 270" y1="19.509" transform="translate(-20384.326 -20038.51)" fill="none" stroke="#000" stroke-linejoin="round" stroke-width="1"/>
      <line id="선_271" data-name="선 271" x2="2" transform="translate(-20411.5 -20046.043)" fill="none" stroke="#000" stroke-linejoin="round" stroke-width="1"/>
      <path id="패스_463" data-name="패스 463" d="M3.833.5H.5v32h32" transform="translate(-20412 -20051.5)" fill="none" stroke="#000" stroke-linejoin="round" stroke-width="1"/>
      <line id="선_272" data-name="선 272" x2="2" transform="translate(-20411.5 -20040.455)" fill="none" stroke="#000" stroke-linejoin="round" stroke-width="1"/>
      <line id="선_273" data-name="선 273" x2="2" transform="translate(-20411.5 -20034.867)" fill="none" stroke="#000" stroke-linejoin="round" stroke-width="1"/>
      <line id="선_274" data-name="선 274" x2="2" transform="translate(-20411.5 -20029.281)" fill="none" stroke="#000" stroke-linejoin="round" stroke-width="1"/>
      <line id="선_275" data-name="선 275" x2="2" transform="translate(-20411.5 -20023.693)" fill="none" stroke="#000" stroke-linejoin="round" stroke-width="1"/>
      <rect id="사각형_2285" data-name="사각형 2285" width="32.773" height="33" transform="translate(-20412 -20051.5)" fill="none"/>
    </g>
  </g>
</svg>
