<svg xmlns="http://www.w3.org/2000/svg" width="54" height="54" viewBox="0 0 54 54">
  <g id="그룹_7955" data-name="그룹 7955" transform="translate(16872 20081)">
    <rect id="사각형_2664" data-name="사각형 2664" width="54" height="54" transform="translate(-16872 -20081)" fill="none"/>
    <g id="그룹_5027" data-name="그룹 5027" transform="translate(2607 -19.999)">
      <path id="패스_481" data-name="패스 481" d="M4.951,21.141,11.915,28.1a.845.845,0,0,0,1.195,0L24.442,16.773a.846.846,0,0,0,0-1.2L17.478,8.614a.845.845,0,0,0-1.195,0L4.951,19.945A.846.846,0,0,0,4.951,21.141Z" transform="translate(-19468 -20050)" fill="none" stroke="#000" stroke-linejoin="round" stroke-width="1"/>
      <path id="패스_482" data-name="패스 482" d="M8.1,16.69.5,9.094,6.484,1.211,15.03,9.756" transform="translate(-19468 -20050)" fill="none" stroke="#000" stroke-linejoin="round" stroke-width="1"/>
      <line id="선_285" data-name="선 285" y1="6.585" x2="6.585" transform="translate(-19463.701 -20043.693)" fill="none" stroke="#000" stroke-linejoin="round" stroke-width="1"/>
      <path id="패스_483" data-name="패스 483" d="M16.256,24.849l7.6,7.6,7.883-5.985L23.19,17.915" transform="translate(-19468 -20050)" fill="none" stroke="#000" stroke-linejoin="round" stroke-width="1"/>
      <line id="선_286" data-name="선 286" y1="6.585" x2="6.585" transform="translate(-19447.771 -20028.111)" fill="none" stroke="#000" stroke-linejoin="round" stroke-width="1"/>
      <path id="패스_484" data-name="패스 484" d="M32.5,9.656A6.475,6.475,0,0,1,23.344.5Z" transform="translate(-19468 -20050)" fill="#1e76af" stroke="#000" stroke-linejoin="round" stroke-width="1"/>
      <path id="패스_485" data-name="패스 485" d="M29.975,7.137l.55-.537a2.913,2.913,0,1,0-4.119-4.119l-.55.537" transform="translate(-19468 -20050)" fill="none" stroke="#000" stroke-linejoin="round" stroke-width="1"/>
      <path id="패스_486" data-name="패스 486" d="M3.563,25.659,1.352,27.87A2.71,2.71,0,1,0,5.185,31.7L7.4,29.492Z" transform="translate(-19468 -20050)" fill="#1e76af" stroke="#000" stroke-linejoin="round" stroke-width="1"/>
      <line id="선_287" data-name="선 287" x1="2.953" y2="2.953" transform="translate(-19462.52 -20025.377)" fill="none" stroke="#000" stroke-linejoin="round" stroke-width="1"/>
      <line id="선_288" data-name="선 288" x1="2.672" y2="2.672" transform="translate(-19447.307 -20040.311)" fill="none" stroke="#000" stroke-linejoin="round" stroke-width="1"/>
      <line id="선_289" data-name="선 289" x1="1.898" y2="1.897" transform="translate(-19451.785 -20035.059)" fill="none" stroke="#000" stroke-linejoin="round" stroke-width="1"/>
      <line id="선_290" data-name="선 290" x1="1.898" y2="1.898" transform="translate(-19456.721 -20030.121)" fill="none" stroke="#000" stroke-linejoin="round" stroke-width="1"/>
      <rect id="사각형_2289" data-name="사각형 2289" width="33" height="32.998" transform="translate(-19468 -20050)" fill="none"/>
    </g>
  </g>
</svg>
