<svg xmlns="http://www.w3.org/2000/svg" width="54" height="54" viewBox="0 0 54 54">
  <g id="그룹_7959" data-name="그룹 7959" transform="translate(16931 19969)">
    <rect id="사각형_2654" data-name="사각형 2654" width="54" height="54" transform="translate(-16931 -19969)" fill="none"/>
    <g id="그룹_5046" data-name="그룹 5046" transform="translate(2607 -18.001)">
      <path id="패스_499" data-name="패스 499" d="M16.235,11.489l6.3-6.422A16.8,16.8,0,0,1,27.74,1.425L29.361.7A2.224,2.224,0,0,1,32.3,3.638l-.665,1.487a16.806,16.806,0,0,1-3.846,5.4L21.4,16.654" transform="translate(-19527 -19940)" fill="none" stroke="#000" stroke-linejoin="round" stroke-width="1"/>
      <path id="패스_500" data-name="패스 500" d="M13.371,23.588l1.089,3.7a2.63,2.63,0,0,1-.663,2.6l-2.543,2.543-1.7-5.765" transform="translate(-19527 -19940)" fill="#1e76af" stroke="#000" stroke-linejoin="round" stroke-width="1"/>
      <path id="패스_501" data-name="패스 501" d="M9.431,19.647l-3.707-1.1a2.628,2.628,0,0,0-2.6.662L.578,21.755l5.736,1.723" transform="translate(-19527 -19940)" fill="#1e76af" stroke="#000" stroke-linejoin="round" stroke-width="1"/>
      <path id="패스_502" data-name="패스 502" d="M25.469,17.2l.7-.7A2.215,2.215,0,0,1,29.3,19.629l-3.227,3.227" transform="translate(-19527 -19940)" fill="none" stroke="#000" stroke-linejoin="round" stroke-width="1"/>
      <path id="패스_503" data-name="패스 503" d="M15.766,7.494l.7-.7a2.214,2.214,0,0,0-3.131-3.132L10.108,6.888" transform="translate(-19527 -19940)" fill="none" stroke="#000" stroke-linejoin="round" stroke-width="1"/>
      <path id="패스_504" data-name="패스 504" d="M19.838,7.887,15.69,7.446l-5.015-.531L7.529,6.578A5.077,5.077,0,0,0,3.4,8.036l-2.9,2.9,12.922,3.784-8.683,10.7a2.027,2.027,0,0,0,2.85,2.851l10.616-8.6,3.707,12.689,2.909-2.909a5.079,5.079,0,0,0,1.458-4.133l-.337-3.132-.531-5.016L25,13.279" transform="translate(-19527 -19940)" fill="none" stroke="#000" stroke-linejoin="round" stroke-width="1"/>
      <path id="패스_505" data-name="패스 505" d="M25.968,4.667A7.919,7.919,0,0,1,27.256,5.7a7.189,7.189,0,0,1,1.03,1.308" transform="translate(-19527 -19940)" fill="none" stroke="#000" stroke-linejoin="round" stroke-width="1"/>
      <rect id="사각형_2294" data-name="사각형 2294" width="33" height="32.932" transform="translate(-19527 -19940)" fill="none"/>
    </g>
  </g>
</svg>
