<svg xmlns="http://www.w3.org/2000/svg" width="54" height="54" viewBox="0 0 54 54">
  <g id="그룹_7953" data-name="그룹 7953" transform="translate(17108 20081)">
    <rect id="사각형_2666" data-name="사각형 2666" width="54" height="54" transform="translate(-17108 -20081)" fill="none"/>
    <g id="그룹_5029" data-name="그룹 5029" transform="translate(2607 -19.999)">
      <path id="패스_600" data-name="패스 600" d="M1662.465,230.836a2.307,2.307,0,1,1,2.307-2.307A2.306,2.306,0,0,1,1662.465,230.836Z" transform="translate(-21350.477 -20277.223)"/>
      <path id="패스_601" data-name="패스 601" d="M1647.784,245.5a2.307,2.307,0,1,1,2.307-2.307A2.306,2.306,0,0,1,1647.784,245.5Z" transform="translate(-21350.477 -20277.223)"/>
      <path id="패스_602" data-name="패스 602" d="M1677.17,245.517a2.307,2.307,0,1,1,2.307-2.307A2.306,2.306,0,0,1,1677.17,245.517Z" transform="translate(-21350.477 -20277.223)"/>
      <path id="패스_603" data-name="패스 603" d="M1662.465,260.2a2.307,2.307,0,1,1,2.307-2.307A2.306,2.306,0,0,1,1662.465,260.2Z" transform="translate(-21350.477 -20277.223)"/>
      <rect id="사각형_2649" data-name="사각형 2649" width="20.762" height="20.762" transform="translate(-19702.693 -20034.012) rotate(-45)" fill="none" stroke="#000" stroke-linecap="round" stroke-miterlimit="43.75" stroke-width="1"/>
      <path id="패스_604" data-name="패스 604" d="M1665.1,239.773a2.622,2.622,0,1,1-2.622-2.621,2.622,2.622,0,0,1,2.622,2.621" transform="translate(-21350.477 -20277.223)" fill="#1e76af" stroke="#000" stroke-linecap="round" stroke-miterlimit="43.75" stroke-width="1"/>
      <path id="패스_605" data-name="패스 605" d="M1657.234,249.268a5.243,5.243,0,0,1,5.243-5.243h0a5.243,5.243,0,0,1,5.243,5.243" transform="translate(-21350.477 -20277.223)" fill="#1e76af" stroke="#000" stroke-linecap="round" stroke-miterlimit="43.75" stroke-width="1"/>
    </g>
  </g>
</svg>
