<svg xmlns="http://www.w3.org/2000/svg" width="54" height="54" viewBox="0 0 54 54">
  <g id="그룹_7952" data-name="그룹 7952" transform="translate(17226 20081)">
    <rect id="사각형_2665" data-name="사각형 2665" width="54" height="54" transform="translate(-17226 -20081)" fill="none"/>
    <g id="그룹_5030" data-name="그룹 5030" transform="translate(2607 -20)">
      <circle id="타원_86" data-name="타원 86" cx="16" cy="16" r="16" transform="translate(-19821.5 -20049.5)" fill="none" stroke="#000" stroke-linejoin="round" stroke-width="1"/>
      <path id="패스_468" data-name="패스 468" d="M19.742,7.3A3.242,3.242,0,1,1,16.5,4.059,3.241,3.241,0,0,1,19.742,7.3Z" transform="translate(-19822 -20050)" fill="none" stroke="#000" stroke-linejoin="round" stroke-width="1"/>
      <path id="패스_469" data-name="패스 469" d="M28.692,13.782a3.241,3.241,0,1,1-3.241-3.242A3.241,3.241,0,0,1,28.692,13.782Z" transform="translate(-19822 -20050)" fill="none" stroke="#000" stroke-linejoin="round" stroke-width="1"/>
      <path id="패스_470" data-name="패스 470" d="M10.791,13.782A3.242,3.242,0,1,1,7.549,10.54,3.241,3.241,0,0,1,10.791,13.782Z" transform="translate(-19822 -20050)" fill="none" stroke="#000" stroke-linejoin="round" stroke-width="1"/>
      <path id="패스_471" data-name="패스 471" d="M14.21,24.324a3.241,3.241,0,1,1-3.241-3.241A3.242,3.242,0,0,1,14.21,24.324Z" transform="translate(-19822 -20050)" fill="none" stroke="#000" stroke-linejoin="round" stroke-width="1"/>
      <path id="패스_472" data-name="패스 472" d="M25.225,24.324a3.241,3.241,0,1,1-3.241-3.241A3.242,3.242,0,0,1,25.225,24.324Z" transform="translate(-19822 -20050)" fill="none" stroke="#000" stroke-linejoin="round" stroke-width="1"/>
      <circle id="타원_87" data-name="타원 87" cx="1.999" cy="1.999" r="1.999" transform="translate(-19807.5 -20035.498)" fill="#1e76af" stroke="#000" stroke-linejoin="round" stroke-width="1"/>
      <line id="선_277" data-name="선 277" x2="16" transform="translate(-19805.5 -20017.5)" fill="none" stroke="#000" stroke-linejoin="round" stroke-width="1"/>
      <rect id="사각형_2287" data-name="사각형 2287" width="33" height="33" transform="translate(-19822 -20050)" fill="none"/>
    </g>
  </g>
</svg>
