<svg xmlns="http://www.w3.org/2000/svg" width="54" height="54" viewBox="0 0 54 54">
  <g id="그룹_7960" data-name="그룹 7960" transform="translate(17049 19969)">
    <rect id="사각형_2657" data-name="사각형 2657" width="54" height="54" transform="translate(-17049 -19969)" fill="none"/>
    <g id="그룹_5045" data-name="그룹 5045" transform="translate(2607 -17.998)">
      <path id="패스_611" data-name="패스 611" d="M1536.46,242.655h8.188l2.127-3.375,3.116,10.882,4.658-15.9,4,12.264,2.527-3.872h6.769" transform="translate(-21181.15 -20167.027)" fill="none" stroke="#1e76af" stroke-linejoin="round" stroke-width="1"/>
      <path id="패스_610" data-name="패스 610" d="M1538.138,230.69l-.1.1a9.839,9.839,0,0,0,0,13.911l13.345,13.344a1.1,1.1,0,0,0,1.552,0l13.344-13.344a9.83,9.83,0,0,0-.005-13.911l-.1-.1a9.105,9.105,0,0,0-12.88.009l-.874.874a.367.367,0,0,1-.514,0l-.876-.874a9.109,9.109,0,0,0-12.879-.009Z" transform="translate(-21181.15 -20167.027)" fill="none" stroke="#000" stroke-linejoin="round" stroke-width="1" fill-rule="evenodd"/>
    </g>
  </g>
</svg>
