<svg xmlns="http://www.w3.org/2000/svg" width="54" height="54" viewBox="0 0 54 54">
  <g id="그룹_7961" data-name="그룹 7961" transform="translate(17167 19969)">
    <rect id="사각형_2674" data-name="사각형 2674" width="54" height="54" transform="translate(-17167 -19969)" fill="none"/>
    <g id="그룹_5044" data-name="그룹 5044" transform="translate(2607 -18)">
      <path id="패스_546" data-name="패스 546" d="M1079.88,251.4c-.488,0-.976-.014-1.461-.04-1.167-.064-2.331-.208-3.486-.383-1.061-.161-2.116-.352-3.168-.563-.628-.126-1.256-.259-1.88-.4l-.176-.041,1.1-15.7h.56a2.192,2.192,0,0,0,2.192-2.192V218.4h2.594v6.369h7.511V218.4h2.594v13.675a2.193,2.193,0,0,0,2.192,2.192h.56l1.1,15.7c-.39.093-.783.178-1.176.262q-1.424.3-2.857.551c-1.171.2-2.348.375-3.53.489C1081.673,251.356,1080.775,251.4,1079.88,251.4Z" transform="translate(-20826.658 -20158.398)" fill="none" stroke="#000" stroke-linecap="round" stroke-linejoin="round" stroke-width="1"/>
      <path id="사각형_2429" data-name="사각형 2429" d="M0,0H10.322a0,0,0,0,1,0,0V5.354a2,2,0,0,1-2,2H2a2,2,0,0,1-2-2V0A0,0,0,0,1,0,0Z" transform="translate(-19751.953 -19920.729)" fill="#1e76af" stroke="#000" stroke-linecap="round" stroke-linejoin="round" stroke-width="1"/>
      <line id="선_365" data-name="선 365" x2="10.322" transform="translate(-19751.953 -19918.807)" fill="none" stroke="#000" stroke-linecap="round" stroke-linejoin="round" stroke-width="1"/>
      <path id="패스_547" data-name="패스 547" d="M1070.814,234.271s-2.125-.395-3.456,2.682a3.684,3.684,0,0,1-4.7,2.21" transform="translate(-20826.658 -20158.398)" fill="none" stroke="#000" stroke-linecap="round" stroke-linejoin="round" stroke-width="1"/>
      <path id="패스_548" data-name="패스 548" d="M1089.186,234.271s2.125-.395,3.456,2.682a3.684,3.684,0,0,0,4.7,2.21" transform="translate(-20826.658 -20158.398)" fill="none" stroke="#000" stroke-linecap="round" stroke-linejoin="round" stroke-width="1"/>
    </g>
  </g>
</svg>
