<svg xmlns="http://www.w3.org/2000/svg" width="54" height="54" viewBox="0 0 54 54">
  <g id="그룹_7958" data-name="그룹 7958" transform="translate(16813 19969)">
    <rect id="사각형_2656" data-name="사각형 2656" width="54" height="54" transform="translate(-16813 -19969)" fill="none"/>
    <g id="그룹_5047" data-name="그룹 5047" transform="translate(2607 -17.998)">
      <path id="패스_552" data-name="패스 552" d="M1323.6,251.077h-21.428v-33h26v28.315Z" transform="translate(-20708.17 -20158.078)" fill="none" stroke="#000" stroke-linejoin="round" stroke-width="1"/>
      <path id="패스_553" data-name="패스 553" d="M1323.6,251.077v-4.685h4.572Z" transform="translate(-20708.17 -20158.078)" fill="none" stroke="#000" stroke-linejoin="round" stroke-width="1"/>
      <path id="패스_554" data-name="패스 554" d="M1323.6,249.03" transform="translate(-20708.17 -20158.078)" fill="none" stroke="#000" stroke-linejoin="round" stroke-width="1"/>
      <circle id="타원_95" data-name="타원 95" cx="6.191" cy="6.191" r="6.191" transform="translate(-19399.238 -19928.566)" fill="none" stroke="#000" stroke-linejoin="round" stroke-width="1"/>
      <path id="패스_555" data-name="패스 555" d="M1315.134,229.513a6.79,6.79,0,0,1-6.221,6.372" transform="translate(-20708.17 -20158.078)" fill="none" stroke="#000" stroke-linejoin="round" stroke-width="1"/>
      <path id="패스_556" data-name="패스 556" d="M1315.11,229.513a6.788,6.788,0,0,0,6.221,6.372" transform="translate(-20708.17 -20158.078)" fill="none" stroke="#000" stroke-linejoin="round" stroke-width="1"/>
      <path id="패스_557" data-name="패스 557" d="M1317.88,238.151a3.26,3.26,0,0,1-5.516,0" transform="translate(-20708.17 -20158.078)" fill="none" stroke="#000" stroke-linejoin="round" stroke-width="1"/>
      <circle id="타원_96" data-name="타원 96" cx="0.606" cy="0.606" r="0.606" transform="translate(-19394.994 -19922.117)"/>
      <circle id="타원_97" data-name="타원 97" cx="0.606" cy="0.606" r="0.606" transform="translate(-19392.314 -19922.117)"/>
      <path id="패스_558" data-name="패스 558" d="M1309.945,226.795l-1.6-4.97h-.032c.01.115.021.264.032.447s.019.382.025.6.008.424.008.626v3.3h-.826V220.95h1.277l1.531,4.691h.032l1.564-4.691h1.277v5.845h-.867v-3.349c0-.191,0-.387.008-.588s.012-.394.02-.574.018-.33.029-.45h-.033l-1.645,4.961Z" transform="translate(-20708.17 -20158.078)" fill="#1e76af"/>
      <path id="패스_559" data-name="패스 559" d="M1318.083,226.795l-.549-1.687h-2.087l-.549,1.687h-.949l2.054-5.87h.983l2.046,5.87Zm-.786-2.456-.54-1.645c-.017-.066-.043-.157-.078-.275s-.071-.238-.106-.364-.065-.235-.086-.328q-.059.279-.127.537c-.047.172-.086.315-.119.43l-.541,1.645Z" transform="translate(-20708.17 -20158.078)" fill="#1e76af"/>
      <path id="패스_560" data-name="패스 560" d="M1321.9,223.651h2.022v2.915a5.249,5.249,0,0,1-.908.233,6.555,6.555,0,0,1-1.057.078,2.411,2.411,0,0,1-1.935-.795,3.276,3.276,0,0,1-.684-2.21,3.537,3.537,0,0,1,.335-1.592,2.409,2.409,0,0,1,.974-1.043,3.047,3.047,0,0,1,1.548-.369,3.929,3.929,0,0,1,.888.1,4.474,4.474,0,0,1,.774.254l-.32.737a3.336,3.336,0,0,0-.63-.234,2.8,2.8,0,0,0-.729-.094,1.713,1.713,0,0,0-1.4.606,2.525,2.525,0,0,0-.495,1.646,3.317,3.317,0,0,0,.188,1.162,1.657,1.657,0,0,0,.59.795,1.752,1.752,0,0,0,1.039.285,3.324,3.324,0,0,0,.537-.037,3.792,3.792,0,0,0,.405-.086v-1.587H1321.9Z" transform="translate(-20708.17 -20158.078)" fill="#1e76af"/>
      <line id="선_379" data-name="선 379" x2="2.251" transform="translate(-19404.271 -19922.256)" fill="none" stroke="#000" stroke-linejoin="round" stroke-width="1"/>
      <line id="선_380" data-name="선 380" x2="2.251" transform="translate(-19404.271 -19925.256)" fill="none" stroke="#000" stroke-linejoin="round" stroke-width="1"/>
      <line id="선_381" data-name="선 381" x2="3.865" transform="translate(-19404.271 -19928.256)" fill="none" stroke="#000" stroke-linejoin="round" stroke-width="1"/>
      <line id="선_382" data-name="선 382" x2="5.092" transform="translate(-19386.85 -19928.256)" fill="none" stroke="#000" stroke-linejoin="round" stroke-width="1"/>
      <line id="선_383" data-name="선 383" x2="2.251" transform="translate(-19384.01 -19925.256)" fill="none" stroke="#000" stroke-linejoin="round" stroke-width="1"/>
      <line id="선_384" data-name="선 384" x2="2.251" transform="translate(-19384.01 -19922.256)" fill="none" stroke="#000" stroke-linejoin="round" stroke-width="1"/>
      <line id="선_385" data-name="선 385" x2="3.94" transform="translate(-19385.697 -19919.256)" fill="none" stroke="#000" stroke-linejoin="round" stroke-width="1"/>
      <line id="선_386" data-name="선 386" x2="5.305" transform="translate(-19387.063 -19916.256)" fill="none" stroke="#000" stroke-linejoin="round" stroke-width="1"/>
      <line id="선_387" data-name="선 387" x2="3.865" transform="translate(-19404.271 -19919.256)" fill="none" stroke="#000" stroke-linejoin="round" stroke-width="1"/>
      <line id="선_388" data-name="선 388" x2="11.208" transform="translate(-19404.271 -19912.85)" fill="none" stroke="#000" stroke-linejoin="round" stroke-width="1"/>
      <line id="선_389" data-name="선 389" x2="17.209" transform="translate(-19404.271 -19910.063)" fill="none" stroke="#000" stroke-linejoin="round" stroke-width="1"/>
      <line id="선_390" data-name="선 390" x2="3.865" transform="translate(-19404.271 -19916.256)" fill="none" stroke="#000" stroke-linejoin="round" stroke-width="1"/>
    </g>
  </g>
</svg>
