<svg xmlns="http://www.w3.org/2000/svg" width="54" height="54" viewBox="0 0 54 54">
  <g id="그룹_7965" data-name="그룹 7965" transform="translate(17639 19969)">
    <rect id="사각형_2673" data-name="사각형 2673" width="54" height="54" transform="translate(-17639 -19969)" fill="none"/>
    <g id="그룹_5040" data-name="그룹 5040" transform="translate(2607 -19)">
      <path id="패스_5350" data-name="패스 5350" d="M-20208.215-19912.191v-7.945l-11.2,3.18-11.264-3.18v8.279s4.395-.752,5.3,0a2.915,2.915,0,0,1,1.381,2.326c-.025.91,0,2.6,0,2.6h9.322s-.707-3.59.508-4.451,2.387-.7,3.521-.807A16.067,16.067,0,0,1-20208.215-19912.191Z" fill="#1e76af"/>
      <circle id="타원_93" data-name="타원 93" cx="5.316" cy="5.316" r="5.316" transform="translate(-20224.822 -19940)" fill="none" stroke="#000" stroke-linejoin="round" stroke-width="1"/>
      <path id="패스_535" data-name="패스 535" d="M610.385,230.3a11.189,11.189,0,0,1,11.189,11.19v3.647a5.4,5.4,0,0,1-5.4,5.4H595.6a5.4,5.4,0,0,1-5.4-5.4v-3.647a11.19,11.19,0,0,1,11.19-11.19Z" transform="translate(-20825.195 -20157.535)" fill="none" stroke="#000" stroke-linejoin="round" stroke-width="1"/>
      <path id="패스_536" data-name="패스 536" d="M594.578,245.3v-7.918l11.111,3.035v10.118" transform="translate(-20825.195 -20157.535)" fill="none" stroke="#000" stroke-linejoin="round" stroke-width="1"/>
      <path id="패스_537" data-name="패스 537" d="M594.578,245.3h4.1a2.907,2.907,0,0,1,2.908,2.906v2.328" transform="translate(-20825.672 -20157.535)" fill="none" stroke="#000" stroke-linejoin="round" stroke-width="1"/>
      <path id="패스_538" data-name="패스 538" d="M617,245.3v-7.918l-11.111,3.035v10.118" transform="translate(-20825.195 -20157.535)" fill="none" stroke="#000" stroke-linejoin="round" stroke-width="1"/>
      <path id="패스_539" data-name="패스 539" d="M617,245.3h-4.1a2.907,2.907,0,0,0-2.907,2.906v2.328" transform="translate(-20824.719 -20157.535)" fill="none" stroke="#000" stroke-linejoin="round" stroke-width="1"/>
      <path id="패스_540" data-name="패스 540" d="M609.789,230.3l-1.952,2.2-1.952,2.2-1.952-2.2-1.952-2.2" transform="translate(-20825.195 -20157.535)" fill="none" stroke="#000" stroke-linejoin="round" stroke-width="1"/>
      <line id="선_361" data-name="선 361" y2="4.708" transform="translate(-20227.066 -19926.74)" fill="none" stroke="#000" stroke-linejoin="round" stroke-width="1"/>
      <line id="선_362" data-name="선 362" y2="4.708" transform="translate(-20211.75 -19926.74)" fill="none" stroke="#000" stroke-linejoin="round" stroke-width="1"/>
      <line id="선_363" data-name="선 363" y2="3.433" transform="translate(-20219.311 -19922.828)" fill="none" stroke="#000" stroke-linejoin="round" stroke-width="1"/>
    </g>
  </g>
</svg>
