<svg xmlns="http://www.w3.org/2000/svg" xmlns:xlink="http://www.w3.org/1999/xlink" width="54" height="54" viewBox="0 0 54 54">
  <defs>
    <clipPath id="clip-path">
      <rect id="사각형_4969" data-name="사각형 4969" width="33.775" height="33.8"/>
    </clipPath>
  </defs>
  <g id="그룹_8244" data-name="그룹 8244" transform="translate(20127 19951)">
    <rect id="사각형_2669" data-name="사각형 2669" width="54" height="54" transform="translate(-20127 -19951)" fill="rgba(0,0,0,0)"/>
    <path id="패스_8015" data-name="패스 8015" d="M-17246.455-18710.107v21.646a27.528,27.528,0,0,0,3.578.441,5.282,5.282,0,0,0,2.938-.832c.178-.3,0-21.256,0-21.256a9.4,9.4,0,0,1-2.937.549C-17244.053-18709.637-17246.455-18710.107-17246.455-18710.107Z" transform="translate(-2857 -1224)" fill="#1e76af"/>
    <g id="그룹_8247" data-name="그룹 8247" transform="translate(-20117 -19941)">
      <g id="그룹_8244-2" data-name="그룹 8244" transform="translate(0 -0.001)" clip-path="url(#clip-path)">
        <path id="패스_8004" data-name="패스 8004" d="M32.751,4.419h-2.3V2.15a.513.513,0,0,0-.513-.513c-5.6,0-8.99.83-10.967,1.634L17.343.248a.534.534,0,0,0-.9,0L14.812,3.273c-1.977-.8-5.371-1.635-10.973-1.635a.513.513,0,0,0-.513.513V4.419h-2.3A1.026,1.026,0,0,0,0,5.443V29.837a1.025,1.025,0,0,0,1.024,1.025H12.2a1.669,1.669,0,0,1,.81.208v1.691a.512.512,0,0,0,.357.489,11.577,11.577,0,0,0,7.047,0,.513.513,0,0,0,.358-.489v-1.7a1.715,1.715,0,0,1,.8-.2H32.751a1.026,1.026,0,0,0,1.025-1.025V5.443a1.026,1.026,0,0,0-1.025-1.024M29.425,2.665V26.9a33.751,33.751,0,0,0-8.652,1.028V6.749c0-.011,0-.02,0-.031s0-.025,0-.037a.513.513,0,0,0-.051-.169l0-.006-1.25-2.323a28.091,28.091,0,0,1,9.964-1.517M19.184,28.277c-.152.034-.3.063-.458.089-.1.018-.2.037-.3.052-.17.025-.34.043-.511.06-.084.008-.17.02-.254.026s-.172.006-.257.011V7.77a11.635,11.635,0,0,0,2.346-.342v20.7c-.081.023-.161.047-.244.068-.106.027-.213.054-.32.077m-3.314.2c-.171-.017-.342-.035-.511-.06-.1-.015-.2-.034-.3-.052-.154-.027-.306-.056-.458-.089-.107-.024-.213-.051-.32-.077-.082-.021-.163-.046-.244-.068V7.428a11.637,11.637,0,0,0,2.341.342V28.514c-.084,0-.168,0-.252-.01s-.17-.018-.254-.026M15.282,4.562a6.261,6.261,0,0,0,1.61.215,6.261,6.261,0,0,0,1.61-.215l1,1.865a10.547,10.547,0,0,1-2.6.334l-.011,0-.011,0a10.586,10.586,0,0,1-2.6-.334Zm1.61-2.99L18,3.631a5.274,5.274,0,0,1-2.217,0ZM4.351,2.665a28.046,28.046,0,0,1,9.97,1.52l-1.249,2.32v.006a.5.5,0,0,0-.051.169c0,.013,0,.025,0,.037s0,.02,0,.031V27.928A33.754,33.754,0,0,0,4.351,26.9ZM12.2,29.837H1.025V5.445h2.3V27.409a.512.512,0,0,0,.513.512A32.617,32.617,0,0,1,13.011,29v.965a2.7,2.7,0,0,0-.81-.126m7.547,2.542a10.522,10.522,0,0,1-5.712,0V29.2c.038.01.076.016.113.025.092.022.182.041.274.061.18.039.361.075.544.1.1.017.194.032.292.046.187.027.374.048.562.065.086.008.171.019.258.025a11.641,11.641,0,0,0,1.629,0c.085-.006.171-.017.256-.025.188-.017.376-.038.563-.065q.146-.021.292-.046c.182-.03.363-.066.544-.1.091-.02.182-.039.273-.061.037-.009.075-.015.113-.025Zm1.822-2.542a2.811,2.811,0,0,0-.8.115V28.98a32.954,32.954,0,0,1,9.164-1.059.512.512,0,0,0,.513-.512V5.443h2.3V29.837Z" transform="translate(0 0)"/>
        <path id="패스_8005" data-name="패스 8005" d="M31.54,10.582a.571.571,0,0,0,.1-.01,33.232,33.232,0,0,1,4.746-.577.512.512,0,1,0-.056-1.023,34.081,34.081,0,0,0-4.9.6.512.512,0,0,0,.1,1.014" transform="translate(-9.179 -2.653)"/>
        <path id="패스_8006" data-name="패스 8006" d="M31.54,15.67a.515.515,0,0,0,.1-.011,33.217,33.217,0,0,1,4.747-.577.512.512,0,0,0-.057-1.023,34.373,34.373,0,0,0-4.895.6.513.513,0,0,0,.1,1.015" transform="translate(-9.179 -4.158)"/>
        <path id="패스_8007" data-name="패스 8007" d="M36.333,19.147a34.123,34.123,0,0,0-4.894.6.512.512,0,0,0,.1,1.014.577.577,0,0,0,.1-.01,33.2,33.2,0,0,1,4.745-.577.513.513,0,0,0,.484-.539.521.521,0,0,0-.54-.484" transform="translate(-9.18 -5.664)"/>
        <path id="패스_8008" data-name="패스 8008" d="M36.333,24.234a34.229,34.229,0,0,0-4.894.6.513.513,0,0,0,.1,1.015.52.52,0,0,0,.1-.011,33.1,33.1,0,0,1,4.745-.577.512.512,0,1,0-.056-1.023" transform="translate(-9.18 -7.169)"/>
        <path id="패스_8009" data-name="패스 8009" d="M36.333,29.322a34.173,34.173,0,0,0-4.894.6.513.513,0,0,0,.1,1.015.522.522,0,0,0,.1-.011,33.354,33.354,0,0,1,4.745-.577.513.513,0,0,0,.484-.539.519.519,0,0,0-.54-.484" transform="translate(-9.18 -8.674)"/>
        <path id="패스_8010" data-name="패스 8010" d="M9.126,9.995a33.242,33.242,0,0,1,4.747.577.565.565,0,0,0,.1.01.512.512,0,0,0,.1-1.014,34.093,34.093,0,0,0-4.9-.6.512.512,0,0,0-.056,1.023" transform="translate(-2.557 -2.653)"/>
        <path id="패스_8011" data-name="패스 8011" d="M14.076,14.655a34.36,34.36,0,0,0-4.895-.6.505.505,0,0,0-.54.484.511.511,0,0,0,.483.539,33.224,33.224,0,0,1,4.747.578.571.571,0,0,0,.1.01.513.513,0,0,0,.1-1.015" transform="translate(-2.556 -4.159)"/>
        <path id="패스_8012" data-name="패스 8012" d="M14.076,19.743a34.145,34.145,0,0,0-4.895-.6.513.513,0,0,0-.056,1.024,33.117,33.117,0,0,1,4.747.577.562.562,0,0,0,.1.009.512.512,0,0,0,.1-1.014" transform="translate(-2.556 -5.664)"/>
        <path id="패스_8013" data-name="패스 8013" d="M14.076,24.829a34.252,34.252,0,0,0-4.895-.6.512.512,0,0,0-.056,1.023,33.117,33.117,0,0,1,4.747.577.507.507,0,0,0,.1.01.513.513,0,0,0,.1-1.015" transform="translate(-2.556 -7.169)"/>
        <path id="패스_8014" data-name="패스 8014" d="M14.076,29.917a34.209,34.209,0,0,0-4.895-.6.513.513,0,0,0-.056,1.024,33.273,33.273,0,0,1,4.747.577.512.512,0,0,0,.2-1" transform="translate(-2.556 -8.674)"/>
      </g>
    </g>
  </g>
</svg>
