<svg xmlns="http://www.w3.org/2000/svg" width="54" height="54" viewBox="0 0 54 54">
  <g id="그룹_7948" data-name="그룹 7948" transform="translate(17698 20081)">
    <rect id="사각형_2658" data-name="사각형 2658" width="54" height="54" transform="translate(-17698 -20081)" fill="none"/>
    <g id="그룹_5034" data-name="그룹 5034" transform="translate(2607 -19.171)">
      <path id="패스_5344" data-name="패스 5344" d="M-20278.7-20051.342v5.736h8.693l-2.246-3.207,2.246-2.529Z" fill="#1e76af"/>
      <line id="선_276" data-name="선 276" x1="37.35" transform="translate(-20296.578 -20019.002)" fill="none" stroke="#000" stroke-linejoin="round" stroke-width="1"/>
      <path id="패스_464" data-name="패스 464" d="M4.639,32.827l13.68-21.052L32,32.827" transform="translate(-20297 -20051.828)" fill="none" stroke="#000" stroke-linejoin="round" stroke-width="1"/>
      <path id="패스_465" data-name="패스 465" d="M.419,28.251,8.166,16.344l2.4,3.68" transform="translate(-20297 -20051.828)" fill="none" stroke="#000" stroke-linejoin="round" stroke-width="1"/>
      <path id="패스_466" data-name="패스 466" d="M18.318,11.775V.5h8.521L24.772,3.251,26.839,6H18.318" transform="translate(-20297 -20051.828)" fill="none" stroke="#000" stroke-linejoin="round" stroke-width="1"/>
      <path id="패스_467" data-name="패스 467" d="M13.252,19.61l.875.889a1.635,1.635,0,0,0,2.159.15l1.037-.8a1.624,1.624,0,0,1,1.978,0l1.043.8a1.626,1.626,0,0,0,2.138-.14l.9-.9" transform="translate(-20297 -20051.828)" fill="none" stroke="#000" stroke-linejoin="round" stroke-width="1"/>
      <rect id="사각형_2286" data-name="사각형 2286" width="37.773" height="33.327" transform="translate(-20297 -20051.828)" fill="none"/>
    </g>
  </g>
</svg>
