<svg xmlns="http://www.w3.org/2000/svg" width="54" height="54" viewBox="0 0 54 54">
  <g id="그룹_7949" data-name="그룹 7949" transform="translate(17580 20081)">
    <rect id="사각형_2663" data-name="사각형 2663" width="54" height="54" transform="translate(-17580 -20081)" fill="none"/>
    <g id="그룹_5033" data-name="그룹 5033" transform="translate(2607 -20.998)">
      <path id="패스_5345" data-name="패스 5345" d="M-20144.027-20019.975a6.159,6.159,0,0,0,.48,1.688c.367.756-.48,1.133-.48,1.133h-29.187s-2.58-1.664-2.449-2.82" transform="translate(0 0.492)" fill="#1e76af"/>
      <path id="패스_541" data-name="패스 541" d="M739.509,135.8a11.093,11.093,0,0,1,.85-4.266H711.907a4.266,4.266,0,1,0,0,8.531h28.452A11.088,11.088,0,0,1,739.509,135.8Z" transform="translate(-20883.641 -20157.07)" fill="none" stroke="#000" stroke-linejoin="round" stroke-width="1"/>
      <path id="패스_542" data-name="패스 542" d="M714.583,115.314c-2.44,3.385-.817,8.949,1.548,11.966.977,1.245,3.008,3.823,4.41,3.88.925.038,1.718-.529,3.3-.538" transform="translate(-20883.641 -20157.07)" fill="none" stroke="#000" stroke-linejoin="round" stroke-width="1"/>
      <path id="패스_543" data-name="패스 543" d="M721.916,113.749a3.242,3.242,0,0,0,1.192.232,8.012,8.012,0,0,0,1.824-.078,9.527,9.527,0,0,0,1.376-.328,6.467,6.467,0,0,0,.638-.232,5.133,5.133,0,0,1,5.173.985c3.676,3.178,1.968,9.619-.644,12.952-.976,1.245-3.008,3.823-4.41,3.88-.925.038-1.718-.529-3.3-.538" transform="translate(-20883.641 -20157.07)" fill="none" stroke="#000" stroke-linejoin="round" stroke-width="1"/>
      <path id="패스_544" data-name="패스 544" d="M723.768,111.187s-6.331-3.223-10.325,3.687C713.443,114.874,720.134,118.332,723.768,111.187Z" transform="translate(-20883.641 -20157.07)" fill="none" stroke="#000" stroke-linejoin="round" stroke-width="1"/>
      <path id="패스_545" data-name="패스 545" d="M727.51,107.069a7.633,7.633,0,0,0-4.078,6.716" transform="translate(-20883.641 -20157.07)" fill="none" stroke="#000" stroke-linejoin="round" stroke-width="1"/>
      <line id="선_364" data-name="선 364" x2="27.159" transform="translate(-20171.291 -20021.342)" fill="none" stroke="#000" stroke-linejoin="round" stroke-width="1"/>
    </g>
  </g>
</svg>
