<svg xmlns="http://www.w3.org/2000/svg" width="54" height="54" viewBox="0 0 54 54">
  <g id="그룹_7966" data-name="그룹 7966" transform="translate(17757 19969)">
    <rect id="사각형_2670" data-name="사각형 2670" width="54" height="54" transform="translate(-17757 -19969)" fill="none"/>
    <g id="그룹_5039" data-name="그룹 5039" transform="translate(2606 -18)">
      <line id="선_294" data-name="선 294" x1="8.348" y2="8.348" transform="translate(-20348.432 -19935.432)" fill="none" stroke="#000" stroke-linejoin="round" stroke-width="1"/>
      <line id="선_295" data-name="선 295" y1="8.348" x2="8.348" transform="translate(-20333.092 -19920.092)" fill="none" stroke="#000" stroke-linejoin="round" stroke-width="1"/>
      <path id="패스_490" data-name="패스 490" d="M8.34,16.687,11.123,13.9,13.9,11.122l2.783-2.783" transform="translate(-20353 -19940)" fill="none" stroke="#000" stroke-linejoin="round" stroke-width="1"/>
      <path id="패스_5349" data-name="패스 5349" d="M33,31.172c-.135-.627-1.984-4.523-1.984-4.523A37.927,37.927,0,0,0,27.1,30.461c-.357.711,4.521,2.236,4.521,2.236S33.135,31.8,33,31.172Z" transform="translate(-20353 -19940)" fill="#1e76af"/>
      <path id="패스_491" data-name="패스 491" d="M16.687,8.34l11.57,11.57,4.161,10.955a1.2,1.2,0,0,1-1.554,1.554L19.909,28.257,8.339,16.688,4.568,12.917.834,9.181a1.138,1.138,0,0,1,0-1.612L7.569.833a1.143,1.143,0,0,1,1.613,0l3.734,3.736Z" transform="translate(-20353 -19940)" fill="none" stroke="#000" stroke-linejoin="round" stroke-width="1"/>
      <path id="패스_492" data-name="패스 492" d="M26.64,30.816a16.469,16.469,0,0,1,4.177-4.177" transform="translate(-20353 -19940)" fill="none" stroke="#000" stroke-linejoin="round" stroke-width="1"/>
      <line id="선_296" data-name="선 296" x1="11.569" y1="11.569" transform="translate(-20340.486 -19927.486)" fill="none" stroke="#000" stroke-linejoin="round" stroke-width="1"/>
      <path id="패스_493" data-name="패스 493" d="M14.9,26.228,9.268,31.865a.9.9,0,0,1-1.27,0L1.136,25a.9.9,0,0,1,0-1.27L6.773,18.1" transform="translate(-20353 -19940)" fill="none" stroke="#000" stroke-linejoin="round" stroke-width="1"/>
      <line id="선_297" data-name="선 297" x2="1.495" y2="1.495" transform="translate(-20350.141 -19917.99)" fill="none" stroke="#000" stroke-linejoin="round" stroke-width="1"/>
      <line id="선_298" data-name="선 298" x2="1.495" y2="1.495" transform="translate(-20348.074 -19920.057)" fill="none" stroke="#000" stroke-linejoin="round" stroke-width="1"/>
      <path id="패스_494" data-name="패스 494" d="M26.226,14.907,31.863,9.27a.9.9,0,0,0,0-1.27L25,1.138a.9.9,0,0,0-1.27,0L18.094,6.775" transform="translate(-20353 -19940)" fill="none" stroke="#000" stroke-linejoin="round" stroke-width="1"/>
      <line id="선_299" data-name="선 299" x2="1.495" y2="1.495" transform="translate(-20330.992 -19937.139)" fill="none" stroke="#000" stroke-linejoin="round" stroke-width="1"/>
      <line id="선_300" data-name="선 300" x2="1.495" y2="1.495" transform="translate(-20333.059 -19935.072)" fill="none" stroke="#000" stroke-linejoin="round" stroke-width="1"/>
      <rect id="사각형_2291" data-name="사각형 2291" width="33" height="33" transform="translate(-20353 -19940)" fill="none"/>
    </g>
  </g>
</svg>
