<svg xmlns="http://www.w3.org/2000/svg" width="54" height="54" viewBox="0 0 54 54">
  <g id="그룹_7957" data-name="그룹 7957" transform="translate(16695 19969)">
    <rect id="사각형_2655" data-name="사각형 2655" width="54" height="54" transform="translate(-16695 -19969)" fill="none"/>
    <g id="그룹_5048" data-name="그룹 5048" transform="translate(2607 -19)">
      <path id="패스_5356" data-name="패스 5356" d="M-19284.252-19906.965c-1.613-.029-2.748-2.564-2.748-2.564v-25.74l2.748,1.256" fill="#1e76af"/>
      <path id="패스_561" data-name="패스 561" d="M1419.2,222.208v26.847a3.137,3.137,0,0,0,3.137,3.137h20.705V225.224h-.017a2.941,2.941,0,0,1-2.714-1.647,3.04,3.04,0,0,1,2.714-4.385H1422.22a3.016,3.016,0,0,0-3.016,3.016h0a3.016,3.016,0,0,0,3.016,3.016h20.826" transform="translate(-20706.203 -20159.191)" fill="none" stroke="#000" stroke-linejoin="round" stroke-width="1"/>
      <path id="패스_562" data-name="패스 562" d="M1437.257,239.694a7.51,7.51,0,0,1-12.706,0" transform="translate(-20705.203 -20159.191)" fill="none" stroke="#000" stroke-linejoin="round" stroke-width="1"/>
      <circle id="타원_98" data-name="타원 98" cx="1.046" cy="1.046" r="1.046" transform="translate(-19278.184 -19925.596)"/>
      <circle id="타원_99" data-name="타원 99" cx="1.046" cy="1.046" r="1.046" transform="translate(-19272.51 -19925.596)"/>
    </g>
  </g>
</svg>
